<svg xmlns="http://www.w3.org/2000/svg" viewBox="0 0 236 242"><path fill="#10b981" d="M91.535-.023h52.927l8.128 37.056a90.951 90.951 0 0 1 20.793 12.006l36.151-11.534 26.464 45.848-28.07 25.571c.52 3.922.803 7.94.803 12.006 0 4.064-.283 8.082-.803 12.004l28.07 25.571-26.464 45.848-36.15-11.533a90.951 90.951 0 0 1-20.794 12.005l-8.128 37.151H91.535l-8.129-37.057a90.904 90.904 0 0 1-20.792-12.004L26.463 204.4-.001 158.552l28.07-25.57a91.636 91.636 0 0 1-.803-12.006c0-4.065.284-8.082.803-12.005L-.001 83.4l26.464-45.848 36.151 11.533a90.87 90.87 0 0 1 20.792-12.005L91.535-.023ZM57.309 92.511v46.764l21.317-33.992L57.31 92.511Zm60.69-34.752L91.041 100.73h53.913l-26.957-42.97Zm0 95.503 25.388-44.438H92.61l25.388 44.463v-.025Zm33.429-42.212-28.372 49.673 55-7.233-26.628-42.44Zm-66.885 0-26.602 42.44 55 7.233-28.372-49.673h-.026Zm37.501 74.662 56.163-24.078-56.163 7.385v16.693Zm56.644-46.437V92.511l-21.317 12.772 21.317 33.992Zm-69.566-82.603-48.83 28.175L82.926 98.43l26.197-41.757ZM57.79 161.634l56.163 24.078v-16.693l-56.163-7.385Zm117.915-76.787-48.83-28.175 26.198 41.757 22.632-13.582Z"/></svg>